<svg height="512" viewBox="0 0 512 512" width="512" xmlns="http://www.w3.org/2000/svg"><g><path d="m336 72h56v64h-56z" fill="#aedef8"/><path d="m392 24h96v112l-64 64h-32z" fill="#35495e"/><path d="m24 72v-24l24-24h64l24 24v24h40v64l-40-.003v32.003l-24 16h-16v-112z" fill="#aedef8"/><path d="m136 104h256v32h-256z" fill="#91cee8"/><path d="m96 136h-72v24l24 24h48z" fill="#aedef8"/><path d="m112 120a8 8 0 0 1 -8-8v-16a8 8 0 0 1 16 0v16a8 8 0 0 1 -8 8z" fill="#91cee8"/><path d="m392 24h32v176h-32z" fill="#3c566d"/><path d="m24 136h72v24h-72z" fill="#91cee8"/><path d="m24 48h72v24h-72z" fill="#91cee8"/><g><path d="m176 56h136.071a24 24 0 0 1 23.929 24v80l-16 16h-127.969l-16.031-16z" fill="#eaaa94"/><g fill="#fac8b2"><path d="m192.031 176h128.246v248h-128.246z"/><rect height="80" rx="16" width="32" x="176" y="24"/><rect height="80" rx="16" width="32" x="208" y="24"/><rect height="80" rx="16" width="32" x="240" y="24"/><rect height="80" rx="16" width="32" x="272" y="24"/></g><g fill="#f4bca8"><path d="m207.692 40v48a16 16 0 0 1 -32 0 16 16 0 0 0 16-16v-48a15.979 15.979 0 0 1 16 16z"/><path d="m239.692 40v48a16 16 0 0 1 -32 0 15.979 15.979 0 0 0 16-16v-48a16 16 0 0 1 16 16z"/><path d="m271.692 40v48a16 16 0 0 1 -32 0 15.979 15.979 0 0 0 16-16v-48a16 16 0 0 1 16 16z"/><path d="m303.692 40v48a16 16 0 0 1 -32 0 15.977 15.977 0 0 0 16-16v-48a16 16 0 0 1 16 16z"/></g><path d="m336 80v80l-16 16h-64v-32a40.015 40.015 0 0 1 40-40h-32a23.979 23.979 0 0 1 -22.62-16 23.6 23.6 0 0 1 -1.38-8 24.006 24.006 0 0 1 24-24h48a24.006 24.006 0 0 1 24 24z" fill="#fac8b2"/><path d="m256 176v-32a40 40 0 0 0 -40-40h-40v56l16 16z" fill="#fac8b2"/><path d="m312 56v88l-32 32h40l16-16v-80a24 24 0 0 0 -24-24z" fill="#f4bca8"/><path d="m296 176h24v248h-24z" fill="#f4bca8"/><path d="m296 88v16h-32a23.979 23.979 0 0 1 -22.62-16z" fill="#f4bca8"/><path d="m216 104h-40v16h24a56 56 0 0 1 56 56v-32a40 40 0 0 0 -40-40z" fill="#f4bca8"/></g><path d="m24 360h464v64h-464z" fill="#ffce00"/><path d="m24 488 64-64h48l-64 64z" fill="#f98800"/><path d="m136 424 64 64h-48l-40-40z" fill="#1a2a38"/><path d="m488 488-64-64h-48l64 64z" fill="#f98800"/><path d="m376 424-64 64h48l40-40z" fill="#1a2a38"/><path d="m40 320h32v40h-32z" fill="#2c3f51"/><circle cx="56" cy="296" fill="#f98800" r="32"/><path d="m440 320h32v40h-32z" fill="#2c3f51"/><circle cx="456" cy="296" fill="#f98800" r="32"/><g fill="#2c3f51"><path d="m200 424 64-64h48l-64 64z"/><path d="m296 424 64-64h48l-64 64z"/><path d="m24 424v-16l48-48h48l-64 64z"/><path d="m104 424 64-64h48l-64 64z"/><path d="m392 424 64-64h32v16l-48 48z"/></g><path d="m160 216h192v64h-192z" fill="#e22526"/><path d="m160 232h-48l16 40-16 40h80v-32h-32z" fill="#d20e0f"/><path d="m352.002 232h47.998l-16 40 16 40h-79.998v-32h32z" fill="#d20e0f"/><circle cx="456" cy="296" fill="#ffce00" r="16"/><circle cx="56" cy="296" fill="#ffce00" r="16"/></g></svg>